<svg xmlns="http://www.w3.org/2000/svg" viewBox="15.69 15.69 168.62 168.62"><g id="mark" transform="rotate(46 100 100)"><rect x="45.00" y="45.00" width="74" height="74" rx="14" fill="#163E5C" opacity="0.85"/><rect x="81.00" y="81.00" width="74" height="74" rx="14" fill="#12A0A6" opacity="0.85"/></g><g id="letter" transform="translate(100 100) rotate(0) scale(0.59176) translate(-167.5 -166.115)"><path id="s-lower" d="M167.56 167.28C171.10 167.66 182.47 166.97 188.79 169.53C195.10 172.09 201.94 177.06 205.45 182.62C208.96 188.18 211.12 196.58 209.84 202.89C208.56 209.20 202.44 215.15 197.77 220.47C193.11 225.79 187.94 232.53 181.88 234.81C175.82 237.09 167.68 236.41 161.44 234.12C155.19 231.83 149.70 225.85 144.39 221.08C139.08 216.32 132.04 208.13 129.57 205.54" stroke="#163E5C" fill="none" stroke-width="25.35" stroke-linecap="round" stroke-linejoin="round"/><path id="s-upper" d="M205.20 124.07C202.43 121.80 194.33 114.73 188.58 110.47C182.83 106.21 177.11 100.68 170.71 98.53C164.31 96.38 156.03 95.14 150.17 97.57C144.32 100.00 139.78 107.42 135.58 113.12C131.38 118.82 126.09 125.31 124.98 131.77C123.88 138.22 125.39 146.49 128.97 151.85C132.56 157.22 140.07 161.39 146.50 163.96C152.93 166.53 160.51 166.35 167.56 167.28C174.61 168.21 185.25 169.15 188.79 169.53" stroke="#12A0A6" fill="none" stroke-width="25.35" stroke-linecap="round" stroke-linejoin="round"/></g></svg>